<?xml version="1.0" encoding="utf-8"?>
<!-- Generator: Adobe Illustrator 13.0.0, SVG Export Plug-In  -->
<!DOCTYPE svg PUBLIC "-//W3C//DTD SVG 1.1//EN" "http://www.w3.org/Graphics/SVG/1.1/DTD/svg11.dtd" [
	<!ENTITY ns_flows "http://ns.adobe.com/Flows/1.0/">
]>
<svg version="1.1"
	 xmlns="http://www.w3.org/2000/svg" xmlns:xlink="http://www.w3.org/1999/xlink" xmlns:a="http://ns.adobe.com/AdobeSVGViewerExtensions/3.0/"
	 x="0px" y="0px" width="350px" height="270px" viewBox="-9.5 -3.678 350 270" enable-background="new -9.5 -3.678 350 270"
	 xml:space="preserve">
<defs>
</defs>
<g>
	<g>
		<line fill="none" x1="187.969" y1="147.621" x2="94" y2="181.822"/>
		<g>
			<g>
				<g>
					<path fill="none" stroke="#454EA1" d="M187.596,147.756c0,0,0.062,16.871-11.652,4.241"/>
					<path fill="none" stroke="#454EA1" d="M164.29,156.239c0,0-0.062-16.871,11.653-4.241"/>
				</g>
				<g>
					<path fill="none" stroke="#454EA1" d="M140.984,164.721c0,0-0.061-16.871,11.654-4.241"/>
					<path fill="none" stroke="#454EA1" d="M164.29,156.239c0,0,0.062,16.871-11.652,4.241"/>
				</g>
			</g>
			<g>
				<g>
					<path fill="none" stroke="#454EA1" d="M94.373,181.686c0,0-0.062-16.871,11.652-4.241"/>
					<path fill="none" stroke="#454EA1" d="M117.679,173.204c0,0,0.061,16.872-11.654,4.241"/>
				</g>
				<g>
					<path fill="none" stroke="#454EA1" d="M140.984,164.721c0,0,0.062,16.872-11.653,4.241"/>
					<path fill="none" stroke="#454EA1" d="M117.679,173.204c0,0-0.062-16.871,11.652-4.241"/>
				</g>
			</g>
		</g>
	</g>
</g>
<g>
	<g>
		<line fill="none" x1="187.969" y1="116.023" x2="94" y2="81.822"/>
		<g>
			<g>
				<g>
					<path fill="none" stroke="#454EA1" d="M187.596,115.887c0,0-10.797,12.964-11.652-4.241"/>
					<path fill="none" stroke="#454EA1" d="M164.29,107.405c0,0,10.798-12.964,11.653,4.241"/>
				</g>
				<g>
					<path fill="none" stroke="#454EA1" d="M140.984,98.922c0,0,10.797-12.964,11.654,4.241"/>
					<path fill="none" stroke="#454EA1" d="M164.29,107.405c0,0-10.797,12.964-11.652-4.241"/>
				</g>
			</g>
			<g>
				<g>
					<path fill="none" stroke="#454EA1" d="M94.373,81.958c0,0,10.797-12.964,11.652,4.241"/>
					<path fill="none" stroke="#454EA1" d="M117.679,90.44c0,0-10.798,12.964-11.654-4.241"/>
				</g>
				<g>
					<path fill="none" stroke="#454EA1" d="M140.984,98.922c0,0-10.797,12.964-11.653-4.241"/>
					<path fill="none" stroke="#454EA1" d="M117.679,90.44c0,0,10.797-12.964,11.652,4.241"/>
				</g>
			</g>
		</g>
	</g>
</g>
<text transform="matrix(1 0 0 1 93 164.8218)" fill="#444DA1" font-family="'ArialMT'" font-size="24">W</text>
<line fill="none" stroke="#444DA1" stroke-width="2" x1="118.047" y1="145.853" x2="126.047" y2="145.853"/>
<text transform="matrix(1 0 0 1 93 117.8213)" fill="#444DA1" font-family="'ArialMT'" font-size="24">W</text>
<line fill="none" stroke="#444DA1" stroke-width="2" x1="118.047" y1="98.853" x2="126.047" y2="98.853"/>
<text transform="matrix(1 0 0 1 296 123.8218)" fill="#231F20" font-family="'ArialMT'" font-size="30">e</text>
<text transform="matrix(1 0 0 1 310 100.8218)" fill="#231F20" font-family="'ArialMT'" font-size="18">_</text>
<text transform="matrix(1 0 0 1 296 154.8218)" fill="#231F20" font-family="'ArialMT'" font-size="30">e</text>
<text transform="matrix(1 0 0 1 310 131.8218)" fill="#231F20" font-family="'ArialMT'" font-size="18">_</text>
<text transform="matrix(1 0 0 1 41 29.8218)" fill="#231F20" font-family="'ArialMT'" font-size="30">u</text>
<text transform="matrix(1 0 0 1 312 58.9106)" fill="#00BF1D" font-family="'ArialMT'" font-size="40">p</text>
<text transform="matrix(1 0 0 1 312 222.9106)" fill="#00BF1D" font-family="'ArialMT'" font-size="40">p</text>
<text transform="matrix(1 0 0 1 0 62.9106)" fill="#00BF1D" font-family="'ArialMT'" font-size="40">n</text>
<text transform="matrix(1 0 0 1 0 223.9106)" fill="#00BF1D" font-family="'ArialMT'" font-size="40">n</text>
<text transform="matrix(1 0 0 1 41 89.8218)" fill="#231F20" font-family="'ArialMT'" font-size="30">d</text>
<text transform="matrix(1 0 0 1 41 59.8218)" fill="#231F20" font-family="'ArialMT'" font-size="30">d</text>
<text transform="matrix(1 0 0 1 274 189.8218)" fill="#231F20" font-family="'ArialMT'" font-size="30">u</text>
<text transform="matrix(1 0 0 1 41 249.8218)" fill="#231F20" font-family="'ArialMT'" font-size="30">u</text>
<text transform="matrix(1 0 0 1 274 249.8218)" fill="#231F20" font-family="'ArialMT'" font-size="30">u</text>
<text transform="matrix(1 0 0 1 41 189.8218)" fill="#231F20" font-family="'ArialMT'" font-size="30">d</text>
<text transform="matrix(1 0 0 1 41 219.8218)" fill="#231F20" font-family="'ArialMT'" font-size="30">d</text>
<text transform="matrix(1 0 0 1 274 219.8218)" fill="#231F20" font-family="'ArialMT'" font-size="30">d</text>
<text transform="matrix(1 0 0 1 274 29.8213)" fill="#231F20" font-family="'ArialMT'" font-size="30">u</text>
<text transform="matrix(1 0 0 1 274 89.8213)" fill="#231F20" font-family="'ArialMT'" font-size="30">u</text>
<text transform="matrix(1 0 0 1 274 59.8213)" fill="#231F20" font-family="'ArialMT'" font-size="30">d</text>
<path fill="#231F20" d="M168.891,124.572c-0.137-0.371-0.283-0.635-0.439-0.791s-0.337-0.234-0.542-0.234
	c-0.381,0-0.651,0.166-0.813,0.498c-0.16,0.332-0.241,0.889-0.241,1.67v0.264h-0.659c0-0.059-0.005-0.146-0.015-0.264
	s-0.015-0.21-0.015-0.278c0-1.143,0.225-2.021,0.674-2.637s1.094-0.923,1.934-0.923c0.752,0,1.362,0.218,1.831,0.652
	s0.957,1.306,1.465,2.614l2.915,7.441c0.898-1.387,1.553-2.668,1.963-3.845s0.615-2.347,0.615-3.509v-0.718
	c0-0.967,0.142-1.648,0.425-2.043c0.283-0.396,0.762-0.594,1.436-0.594c0.42,0,0.755,0.109,1.003,0.33
	c0.25,0.219,0.374,0.52,0.374,0.9c0,0.674-0.818,2.464-2.454,5.369s-2.966,5.466-3.991,7.683h-0.776L168.891,124.572z"/>
<text transform="matrix(1 0 0 1 176.166 144.8218)" fill="#231F20" font-family="'ArialMT'" font-size="16">e</text>
<line fill="none" stroke="#231F20" x1="164" y1="51.822" x2="264" y2="51.822"/>
<g>
	<g>
		<line fill="none" stroke="#231F20" x1="64" y1="51.822" x2="164" y2="51.822"/>
		<polygon fill="#231F20" points="171.06,51.822 161.11,55.886 163.472,51.822 161.11,47.757 		"/>
	</g>
</g>
<line fill="none" stroke="#231F20" x1="164" y1="211.822" x2="264" y2="211.822"/>
<g>
	<g>
		<line fill="none" stroke="#231F20" x1="64" y1="211.822" x2="164" y2="211.822"/>
		<polygon fill="#231F20" points="171.06,211.822 161.11,215.886 163.472,211.822 161.11,207.757 		"/>
	</g>
</g>
<line fill="none" stroke="#231F20" x1="164" y1="21.822" x2="264" y2="21.822"/>
<g>
	<g>
		<line fill="none" stroke="#231F20" x1="64" y1="21.822" x2="164" y2="21.822"/>
		<polygon fill="#231F20" points="171.06,21.822 161.11,25.886 163.472,21.822 161.11,17.757 		"/>
	</g>
</g>
<line fill="none" stroke="#231F20" x1="237.969" y1="116.023" x2="287.969" y2="116.023"/>
<g>
	<g>
		<line fill="none" stroke="#231F20" x1="187.969" y1="116.023" x2="237.969" y2="116.023"/>
		<polygon fill="#231F20" points="245.029,116.023 235.08,120.087 237.441,116.023 235.08,111.958 		"/>
	</g>
</g>
<line fill="none" stroke="#231F20" x1="237.969" y1="147.621" x2="287.969" y2="147.621"/>
<g>
	<g>
		<line fill="none" stroke="#231F20" x1="187.969" y1="147.621" x2="237.969" y2="147.621"/>
		<polygon fill="#231F20" points="245.029,147.621 235.08,151.685 237.441,147.621 235.08,143.556 		"/>
	</g>
</g>
<g>
	<g>
		<line fill="none" stroke="#231F20" x1="187.969" y1="147.621" x2="187.969" y2="116.023"/>
	</g>
</g>
<g>
	<g>
		<line fill="none" stroke="#231F20" x1="64" y1="81.822" x2="164" y2="81.822"/>
	</g>
</g>
<g>
	<g>
		<line fill="none" stroke="#231F20" x1="164" y1="81.822" x2="264" y2="81.822"/>
	</g>
</g>
<line fill="none" stroke="#231F20" x1="164" y1="241.822" x2="264" y2="241.822"/>
<g>
	<g>
		<line fill="none" stroke="#231F20" x1="64" y1="241.822" x2="164" y2="241.822"/>
		<polygon fill="#231F20" points="171.061,241.822 161.11,245.886 163.472,241.822 161.11,237.757 		"/>
	</g>
</g>
<g>
	<g>
		<line fill="none" stroke="#231F20" x1="64" y1="181.822" x2="164" y2="181.822"/>
	</g>
</g>
<g>
	<g>
		<line fill="none" stroke="#231F20" x1="164" y1="181.822" x2="264" y2="181.822"/>
	</g>
</g>
<ellipse fill="none" stroke="#67BD45" stroke-width="2" stroke-dasharray="10" cx="283" cy="50.911" rx="18" ry="49.911"/>
<ellipse fill="none" stroke="#67BD45" stroke-width="2" stroke-dasharray="10" cx="50" cy="211.822" rx="18" ry="49.911"/>
<ellipse fill="none" stroke="#67BD45" stroke-width="2" stroke-dasharray="10" cx="50" cy="50.911" rx="18" ry="49.911"/>
<ellipse fill="none" stroke="#67BD45" stroke-width="2" stroke-dasharray="10" cx="283" cy="212.822" rx="18" ry="49.911"/>
</svg>
